<mxfile host="app.diagrams.net" modified="2023-05-20T13:14:44.285Z" agent="Mozilla/5.0 (Windows NT 10.0; Win64; x64) AppleWebKit/537.36 (KHTML, like Gecko) Chrome/112.0.0.0 Safari/537.36 OPR/98.0.0.0" etag="i2e9gg5O70YovQ442MU_" version="21.3.2" type="device">
  <diagram name="Σελίδα-1" id="CsE6YNoTUhBlBd0UO_HM">
    <mxGraphModel dx="3459" dy="2070" grid="1" gridSize="10" guides="1" tooltips="1" connect="1" arrows="1" fold="1" page="1" pageScale="1" pageWidth="1169" pageHeight="827" math="0" shadow="0">
      <root>
        <mxCell id="0" />
        <mxCell id="1" parent="0" />
        <mxCell id="u1zgg_5FD5gQ_HjgiqYV-88" value="Χρήστης" style="shape=umlActor;verticalLabelPosition=bottom;verticalAlign=top;html=1;outlineConnect=0;fontSize=16;" parent="1" vertex="1">
          <mxGeometry x="-160" y="550" width="30" height="60" as="geometry" />
        </mxCell>
        <mxCell id="u1zgg_5FD5gQ_HjgiqYV-104" value="" style="edgeStyle=none;curved=1;rounded=0;orthogonalLoop=1;jettySize=auto;html=1;fontSize=12;startSize=8;endSize=8;strokeColor=#000000;entryX=-0.014;entryY=0.471;entryDx=0;entryDy=0;entryPerimeter=0;exitX=0.5;exitY=0.5;exitDx=0;exitDy=0;exitPerimeter=0;" parent="1" source="u1zgg_5FD5gQ_HjgiqYV-88" target="u1zgg_5FD5gQ_HjgiqYV-165" edge="1">
          <mxGeometry relative="1" as="geometry">
            <Array as="points" />
            <mxPoint x="320" y="349.9999999999998" as="targetPoint" />
            <mxPoint x="110" y="366" as="sourcePoint" />
          </mxGeometry>
        </mxCell>
        <mxCell id="u1zgg_5FD5gQ_HjgiqYV-165" value="Σελίδα &quot;Λίστα Καταστημάτων&quot;" style="shape=umlBoundary;whiteSpace=wrap;html=1;strokeColor=#000000;fontColor=#000000;fontSize=13;" parent="1" vertex="1">
          <mxGeometry x="445" y="295.4" width="120" height="95" as="geometry" />
        </mxCell>
        <mxCell id="u1zgg_5FD5gQ_HjgiqYV-166" value="Επιλέγει κατάστημα" style="edgeLabel;html=1;align=center;verticalAlign=middle;resizable=0;points=[];fontColor=#000000;fontSize=14;rotation=-15;" parent="1" vertex="1" connectable="0">
          <mxGeometry x="50" y="480" as="geometry">
            <mxPoint x="10.435715398198244" y="-0.30958702784199765" as="offset" />
          </mxGeometry>
        </mxCell>
        <mxCell id="u1zgg_5FD5gQ_HjgiqYV-167" value="" style="rounded=0;orthogonalLoop=1;jettySize=auto;html=1;fillColor=#FF0000;strokeColor=#000000;fontColor=#000000;entryX=-0.024;entryY=0.574;entryDx=0;entryDy=0;entryPerimeter=0;exitX=1.006;exitY=0.581;exitDx=0;exitDy=0;exitPerimeter=0;" parent="1" source="u1zgg_5FD5gQ_HjgiqYV-165" target="u1zgg_5FD5gQ_HjgiqYV-169" edge="1">
          <mxGeometry relative="1" as="geometry">
            <mxPoint x="550" y="348.9" as="sourcePoint" />
            <mxPoint x="700" y="342.9" as="targetPoint" />
          </mxGeometry>
        </mxCell>
        <mxCell id="u1zgg_5FD5gQ_HjgiqYV-169" value="&lt;font&gt;Εμφάνισε&amp;nbsp;&lt;/font&gt;" style="ellipse;shape=umlControl;whiteSpace=wrap;html=1;strokeColor=#000000;fontColor=#000000;" parent="1" vertex="1">
          <mxGeometry x="670" y="302.9" width="70" height="80" as="geometry" />
        </mxCell>
        <mxCell id="u1zgg_5FD5gQ_HjgiqYV-171" value="Σελίδα &quot;Διαθέσιμα προϊόντα&quot;" style="shape=umlBoundary;whiteSpace=wrap;html=1;strokeColor=#000000;fontColor=#000000;fontSize=13;" parent="1" vertex="1">
          <mxGeometry x="475" y="414" width="120" height="95" as="geometry" />
        </mxCell>
        <mxCell id="u1zgg_5FD5gQ_HjgiqYV-172" value="" style="rounded=0;orthogonalLoop=1;jettySize=auto;html=1;fillColor=#FF0000;strokeColor=#000000;fontColor=#000000;entryX=0.995;entryY=0.308;entryDx=0;entryDy=0;entryPerimeter=0;exitX=0.103;exitY=0.865;exitDx=0;exitDy=0;exitPerimeter=0;" parent="1" source="u1zgg_5FD5gQ_HjgiqYV-169" target="u1zgg_5FD5gQ_HjgiqYV-171" edge="1">
          <mxGeometry relative="1" as="geometry">
            <mxPoint x="730" y="342.4" as="sourcePoint" />
            <mxPoint x="828" y="342.4" as="targetPoint" />
          </mxGeometry>
        </mxCell>
        <mxCell id="u1zgg_5FD5gQ_HjgiqYV-173" value="Λίστα καταστημάτων και προϊόντων" style="ellipse;shape=umlEntity;whiteSpace=wrap;html=1;fontColor=#000000;strokeColor=#000000;" parent="1" vertex="1">
          <mxGeometry x="430" y="-10" width="100" height="100" as="geometry" />
        </mxCell>
        <mxCell id="u1zgg_5FD5gQ_HjgiqYV-174" value="&lt;font&gt;Εμφάνισε&amp;nbsp;&lt;/font&gt;" style="ellipse;shape=umlControl;whiteSpace=wrap;html=1;strokeColor=#000000;fontColor=#000000;" parent="1" vertex="1">
          <mxGeometry x="445" y="140" width="70" height="80" as="geometry" />
        </mxCell>
        <mxCell id="u1zgg_5FD5gQ_HjgiqYV-177" value="" style="rounded=0;orthogonalLoop=1;jettySize=auto;html=1;fillColor=#FF0000;strokeColor=#000000;fontColor=#000000;entryX=0.514;entryY=0.021;entryDx=0;entryDy=0;entryPerimeter=0;exitX=0.524;exitY=1.004;exitDx=0;exitDy=0;exitPerimeter=0;" parent="1" source="u1zgg_5FD5gQ_HjgiqYV-174" target="u1zgg_5FD5gQ_HjgiqYV-165" edge="1">
          <mxGeometry relative="1" as="geometry">
            <mxPoint x="500" y="272.9" as="sourcePoint" />
            <mxPoint x="598" y="272.9" as="targetPoint" />
          </mxGeometry>
        </mxCell>
        <mxCell id="u1zgg_5FD5gQ_HjgiqYV-178" value="" style="rounded=0;orthogonalLoop=1;jettySize=auto;html=1;fillColor=#FF0000;strokeColor=#000000;fontColor=#000000;entryX=0.5;entryY=1;entryDx=0;entryDy=0;exitX=0.528;exitY=0.099;exitDx=0;exitDy=0;exitPerimeter=0;" parent="1" source="u1zgg_5FD5gQ_HjgiqYV-174" target="u1zgg_5FD5gQ_HjgiqYV-173" edge="1">
          <mxGeometry relative="1" as="geometry">
            <mxPoint x="470" y="162.9" as="sourcePoint" />
            <mxPoint x="490" y="112.9" as="targetPoint" />
          </mxGeometry>
        </mxCell>
        <mxCell id="u1zgg_5FD5gQ_HjgiqYV-179" value="" style="rounded=0;orthogonalLoop=1;jettySize=auto;html=1;fillColor=#FF0000;strokeColor=#000000;fontColor=#000000;entryX=0.972;entryY=0.703;entryDx=0;entryDy=0;entryPerimeter=0;exitX=0.401;exitY=0.108;exitDx=0;exitDy=0;exitPerimeter=0;" parent="1" source="u1zgg_5FD5gQ_HjgiqYV-169" target="u1zgg_5FD5gQ_HjgiqYV-173" edge="1">
          <mxGeometry relative="1" as="geometry">
            <mxPoint x="602" y="242.9" as="sourcePoint" />
            <mxPoint x="535.8" y="80.00000000000003" as="targetPoint" />
          </mxGeometry>
        </mxCell>
        <mxCell id="u1zgg_5FD5gQ_HjgiqYV-180" value="" style="edgeStyle=none;curved=1;rounded=0;orthogonalLoop=1;jettySize=auto;html=1;fontSize=12;startSize=8;endSize=8;strokeColor=#000000;entryX=-0.005;entryY=0.476;entryDx=0;entryDy=0;entryPerimeter=0;exitX=0.5;exitY=0.5;exitDx=0;exitDy=0;exitPerimeter=0;" parent="1" source="u1zgg_5FD5gQ_HjgiqYV-88" target="u1zgg_5FD5gQ_HjgiqYV-171" edge="1">
          <mxGeometry relative="1" as="geometry">
            <Array as="points" />
            <mxPoint x="338" y="360" as="targetPoint" />
            <mxPoint x="85" y="350" as="sourcePoint" />
          </mxGeometry>
        </mxCell>
        <mxCell id="u1zgg_5FD5gQ_HjgiqYV-181" value="&lt;font style=&quot;font-size: 12px;&quot;&gt;Επιλογή προϊόντων και επιλογή προσθήκης αυτών στο καλάθι&lt;/font&gt;" style="edgeLabel;html=1;align=center;verticalAlign=middle;resizable=0;points=[];fontColor=#000000;fontSize=12;rotation=-10;" parent="1" vertex="1" connectable="0">
          <mxGeometry x="190" y="430" as="geometry">
            <mxPoint x="23" y="67" as="offset" />
          </mxGeometry>
        </mxCell>
        <mxCell id="u1zgg_5FD5gQ_HjgiqYV-183" value="" style="edgeStyle=none;curved=1;rounded=0;orthogonalLoop=1;jettySize=auto;html=1;fontSize=12;startSize=8;endSize=8;strokeColor=#000000;exitX=0.986;exitY=0.551;exitDx=0;exitDy=0;exitPerimeter=0;entryX=-0.035;entryY=0.519;entryDx=0;entryDy=0;entryPerimeter=0;" parent="1" source="u1zgg_5FD5gQ_HjgiqYV-171" target="u1zgg_5FD5gQ_HjgiqYV-184" edge="1">
          <mxGeometry relative="1" as="geometry">
            <Array as="points" />
            <mxPoint x="710" y="469" as="targetPoint" />
            <mxPoint x="640" y="500" as="sourcePoint" />
          </mxGeometry>
        </mxCell>
        <mxCell id="u1zgg_5FD5gQ_HjgiqYV-184" value="&lt;font&gt;Πρόσθεσε προϊόντα&lt;/font&gt;" style="ellipse;shape=umlControl;whiteSpace=wrap;html=1;strokeColor=#000000;fontColor=#000000;" parent="1" vertex="1">
          <mxGeometry x="750" y="424.4" width="70" height="80" as="geometry" />
        </mxCell>
        <mxCell id="u1zgg_5FD5gQ_HjgiqYV-185" value="" style="rounded=0;orthogonalLoop=1;jettySize=auto;html=1;fillColor=#FF0000;strokeColor=#000000;fontColor=#000000;exitX=0.701;exitY=0.144;exitDx=0;exitDy=0;exitPerimeter=0;entryX=0.361;entryY=0.991;entryDx=0;entryDy=0;entryPerimeter=0;" parent="1" source="u1zgg_5FD5gQ_HjgiqYV-184" target="u1zgg_5FD5gQ_HjgiqYV-186" edge="1">
          <mxGeometry relative="1" as="geometry">
            <mxPoint x="891" y="402.9" as="sourcePoint" />
            <mxPoint x="850" y="320" as="targetPoint" />
          </mxGeometry>
        </mxCell>
        <mxCell id="u1zgg_5FD5gQ_HjgiqYV-186" value="Καλάθι χρήστη" style="ellipse;shape=umlEntity;whiteSpace=wrap;html=1;fontColor=#000000;strokeColor=#000000;" parent="1" vertex="1">
          <mxGeometry x="830" y="280" width="80" height="82.1" as="geometry" />
        </mxCell>
        <mxCell id="u1zgg_5FD5gQ_HjgiqYV-187" value="" style="endArrow=classic;html=1;rounded=0;exitX=0.156;exitY=0.854;exitDx=0;exitDy=0;exitPerimeter=0;entryX=0.914;entryY=0.275;entryDx=0;entryDy=0;entryPerimeter=0;" parent="1" source="u1zgg_5FD5gQ_HjgiqYV-184" target="u1zgg_5FD5gQ_HjgiqYV-209" edge="1">
          <mxGeometry width="50" height="50" relative="1" as="geometry">
            <mxPoint x="730" y="630" as="sourcePoint" />
            <mxPoint x="660" y="560" as="targetPoint" />
          </mxGeometry>
        </mxCell>
        <mxCell id="u1zgg_5FD5gQ_HjgiqYV-188" value="Σελίδα &quot;Ολοκλήρωση αγορών&quot;" style="shape=umlBoundary;whiteSpace=wrap;html=1;strokeColor=#000000;fontColor=#000000;fontSize=13;" parent="1" vertex="1">
          <mxGeometry x="430" y="590" width="120" height="95" as="geometry" />
        </mxCell>
        <mxCell id="u1zgg_5FD5gQ_HjgiqYV-189" value="" style="edgeStyle=none;curved=1;rounded=0;orthogonalLoop=1;jettySize=auto;html=1;fontSize=12;startSize=8;endSize=8;strokeColor=#000000;entryX=0.005;entryY=0.46;entryDx=0;entryDy=0;entryPerimeter=0;" parent="1" source="u1zgg_5FD5gQ_HjgiqYV-88" target="u1zgg_5FD5gQ_HjgiqYV-188" edge="1">
          <mxGeometry relative="1" as="geometry">
            <Array as="points" />
            <mxPoint x="439" y="472" as="targetPoint" />
            <mxPoint x="55" y="330" as="sourcePoint" />
          </mxGeometry>
        </mxCell>
        <mxCell id="u1zgg_5FD5gQ_HjgiqYV-190" value="&lt;font style=&quot;font-size: 14px;&quot;&gt;Επιβεβαιώνει&lt;/font&gt;" style="edgeLabel;html=1;align=center;verticalAlign=middle;resizable=0;points=[];fontColor=#000000;fontSize=14;" parent="1" vertex="1" connectable="0">
          <mxGeometry x="220" y="600" as="geometry" />
        </mxCell>
        <mxCell id="u1zgg_5FD5gQ_HjgiqYV-191" value="" style="edgeStyle=none;curved=1;rounded=0;orthogonalLoop=1;jettySize=auto;html=1;fontSize=12;startSize=8;endSize=8;strokeColor=#000000;entryX=0.31;entryY=0.202;entryDx=0;entryDy=0;entryPerimeter=0;exitX=1.023;exitY=0.6;exitDx=0;exitDy=0;exitPerimeter=0;" parent="1" source="u1zgg_5FD5gQ_HjgiqYV-188" target="u1zgg_5FD5gQ_HjgiqYV-192" edge="1">
          <mxGeometry relative="1" as="geometry">
            <Array as="points" />
            <mxPoint x="700" y="700" as="targetPoint" />
            <mxPoint x="560" y="640" as="sourcePoint" />
          </mxGeometry>
        </mxCell>
        <mxCell id="u1zgg_5FD5gQ_HjgiqYV-192" value="&lt;font&gt;Εμφάνισε&amp;nbsp;&lt;/font&gt;" style="ellipse;shape=umlControl;whiteSpace=wrap;html=1;strokeColor=#000000;fontColor=#000000;" parent="1" vertex="1">
          <mxGeometry x="595" y="680" width="70" height="80" as="geometry" />
        </mxCell>
        <mxCell id="u1zgg_5FD5gQ_HjgiqYV-193" value="" style="edgeStyle=none;curved=1;rounded=0;orthogonalLoop=1;jettySize=auto;html=1;fontSize=12;startSize=8;endSize=8;strokeColor=#000000;exitX=-0.04;exitY=0.605;exitDx=0;exitDy=0;exitPerimeter=0;entryX=1.023;entryY=0.553;entryDx=0;entryDy=0;entryPerimeter=0;" parent="1" source="u1zgg_5FD5gQ_HjgiqYV-192" target="u1zgg_5FD5gQ_HjgiqYV-194" edge="1">
          <mxGeometry relative="1" as="geometry">
            <Array as="points" />
            <mxPoint x="540" y="750" as="targetPoint" />
            <mxPoint x="540" y="770" as="sourcePoint" />
          </mxGeometry>
        </mxCell>
        <mxCell id="u1zgg_5FD5gQ_HjgiqYV-194" value="Σελίδα &quot;Στοιχεία δρομολόγησης&quot;" style="shape=umlBoundary;whiteSpace=wrap;html=1;strokeColor=#000000;fontColor=#000000;fontSize=13;" parent="1" vertex="1">
          <mxGeometry x="340" y="705" width="120" height="95" as="geometry" />
        </mxCell>
        <mxCell id="u1zgg_5FD5gQ_HjgiqYV-195" value="" style="edgeStyle=none;curved=1;rounded=0;orthogonalLoop=1;jettySize=auto;html=1;fontSize=12;startSize=8;endSize=8;strokeColor=#000000;entryX=-0.015;entryY=0.522;entryDx=0;entryDy=0;entryPerimeter=0;" parent="1" source="u1zgg_5FD5gQ_HjgiqYV-88" target="u1zgg_5FD5gQ_HjgiqYV-194" edge="1">
          <mxGeometry relative="1" as="geometry">
            <Array as="points" />
            <mxPoint x="371" y="690" as="targetPoint" />
            <mxPoint y="388" as="sourcePoint" />
          </mxGeometry>
        </mxCell>
        <mxCell id="u1zgg_5FD5gQ_HjgiqYV-196" value="&lt;font style=&quot;font-size: 14px;&quot;&gt;Συμπληρώνει φόρμας δρομολόγησης&amp;nbsp;&lt;br&gt;&lt;br&gt;&lt;/font&gt;" style="edgeLabel;html=1;align=center;verticalAlign=middle;resizable=0;points=[];fontColor=#000000;fontSize=14;rotation=20;" parent="1" vertex="1" connectable="0">
          <mxGeometry x="100" y="685" as="geometry">
            <mxPoint x="-23.74802184352899" y="3.3957939952508496" as="offset" />
          </mxGeometry>
        </mxCell>
        <mxCell id="u1zgg_5FD5gQ_HjgiqYV-197" value="" style="edgeStyle=none;curved=1;rounded=0;orthogonalLoop=1;jettySize=auto;html=1;fontSize=12;startSize=8;endSize=8;strokeColor=#000000;exitX=1.005;exitY=0.682;exitDx=0;exitDy=0;exitPerimeter=0;" parent="1" source="u1zgg_5FD5gQ_HjgiqYV-194" target="u1zgg_5FD5gQ_HjgiqYV-198" edge="1">
          <mxGeometry relative="1" as="geometry">
            <Array as="points" />
            <mxPoint x="470" y="840" as="targetPoint" />
            <mxPoint x="410" y="820" as="sourcePoint" />
          </mxGeometry>
        </mxCell>
        <mxCell id="u1zgg_5FD5gQ_HjgiqYV-198" value="Είναι έγκυρα τα στοιχεία της φόρμας δρομολόγησης;" style="ellipse;shape=umlControl;whiteSpace=wrap;html=1;strokeColor=#000000;fontColor=#000000;" parent="1" vertex="1">
          <mxGeometry x="475" y="800" width="110" height="130" as="geometry" />
        </mxCell>
        <mxCell id="u1zgg_5FD5gQ_HjgiqYV-200" value="" style="edgeStyle=none;curved=1;rounded=0;orthogonalLoop=1;jettySize=auto;html=1;fontSize=12;startSize=8;endSize=8;strokeColor=#000000;exitX=-0.027;exitY=0.623;exitDx=0;exitDy=0;exitPerimeter=0;entryX=1.033;entryY=0.534;entryDx=0;entryDy=0;entryPerimeter=0;" parent="1" source="u1zgg_5FD5gQ_HjgiqYV-198" target="u1zgg_5FD5gQ_HjgiqYV-205" edge="1">
          <mxGeometry relative="1" as="geometry">
            <Array as="points" />
            <mxPoint x="390" y="970" as="targetPoint" />
            <mxPoint x="630" y="890" as="sourcePoint" />
          </mxGeometry>
        </mxCell>
        <mxCell id="u1zgg_5FD5gQ_HjgiqYV-201" value="&lt;font style=&quot;font-size: 14px;&quot;&gt;ναι&lt;br&gt;&lt;br&gt;&lt;/font&gt;" style="edgeLabel;html=1;align=center;verticalAlign=middle;resizable=0;points=[];fontColor=#000000;fontSize=14;" parent="1" vertex="1" connectable="0">
          <mxGeometry x="430" y="900" as="geometry" />
        </mxCell>
        <mxCell id="u1zgg_5FD5gQ_HjgiqYV-205" value="&lt;font&gt;Εμφάνισε&amp;nbsp;&lt;/font&gt;" style="ellipse;shape=umlControl;whiteSpace=wrap;html=1;strokeColor=#000000;fontColor=#000000;" parent="1" vertex="1">
          <mxGeometry x="320" y="842" width="70" height="80" as="geometry" />
        </mxCell>
        <mxCell id="u1zgg_5FD5gQ_HjgiqYV-206" value="Σελίδα &quot;Ολοκλήρωση παραγγελίας&quot;" style="shape=umlBoundary;whiteSpace=wrap;html=1;strokeColor=#000000;fontColor=#000000;fontSize=13;" parent="1" vertex="1">
          <mxGeometry x="90" y="827" width="120" height="95" as="geometry" />
        </mxCell>
        <mxCell id="u1zgg_5FD5gQ_HjgiqYV-207" value="" style="edgeStyle=none;curved=1;rounded=0;orthogonalLoop=1;jettySize=auto;html=1;fontSize=12;startSize=8;endSize=8;strokeColor=#000000;exitX=0.025;exitY=0.518;exitDx=0;exitDy=0;exitPerimeter=0;" parent="1" source="u1zgg_5FD5gQ_HjgiqYV-205" edge="1">
          <mxGeometry relative="1" as="geometry">
            <Array as="points" />
            <mxPoint x="210" y="880" as="targetPoint" />
            <mxPoint x="290" y="1070" as="sourcePoint" />
          </mxGeometry>
        </mxCell>
        <mxCell id="u1zgg_5FD5gQ_HjgiqYV-208" value="" style="edgeStyle=none;curved=1;rounded=0;orthogonalLoop=1;jettySize=auto;html=1;fontSize=12;startSize=8;endSize=8;strokeColor=#000000;exitX=0.5;exitY=0.5;exitDx=0;exitDy=0;exitPerimeter=0;entryX=-0.008;entryY=0.46;entryDx=0;entryDy=0;entryPerimeter=0;" parent="1" source="u1zgg_5FD5gQ_HjgiqYV-88" target="u1zgg_5FD5gQ_HjgiqYV-206" edge="1">
          <mxGeometry relative="1" as="geometry">
            <Array as="points" />
            <mxPoint x="50" y="810" as="targetPoint" />
            <mxPoint x="-150" y="813" as="sourcePoint" />
          </mxGeometry>
        </mxCell>
        <mxCell id="u1zgg_5FD5gQ_HjgiqYV-209" value="&lt;font&gt;Εμφάνισε&amp;nbsp;&lt;/font&gt;" style="ellipse;shape=umlControl;whiteSpace=wrap;html=1;strokeColor=#000000;fontColor=#000000;" parent="1" vertex="1">
          <mxGeometry x="630" y="511.9" width="70" height="80" as="geometry" />
        </mxCell>
        <mxCell id="u1zgg_5FD5gQ_HjgiqYV-210" value="" style="endArrow=classic;html=1;rounded=0;exitX=0.022;exitY=0.738;exitDx=0;exitDy=0;exitPerimeter=0;entryX=1.004;entryY=0.256;entryDx=0;entryDy=0;entryPerimeter=0;" parent="1" source="u1zgg_5FD5gQ_HjgiqYV-209" target="u1zgg_5FD5gQ_HjgiqYV-188" edge="1">
          <mxGeometry width="50" height="50" relative="1" as="geometry">
            <mxPoint x="762" y="650" as="sourcePoint" />
            <mxPoint x="660" y="719" as="targetPoint" />
          </mxGeometry>
        </mxCell>
        <mxCell id="u1zgg_5FD5gQ_HjgiqYV-211" value="Καλάθι χρήστη" style="ellipse;shape=umlEntity;whiteSpace=wrap;html=1;fontColor=#000000;strokeColor=#000000;" parent="1" vertex="1">
          <mxGeometry x="315" y="990" width="80" height="82.1" as="geometry" />
        </mxCell>
        <mxCell id="u1zgg_5FD5gQ_HjgiqYV-212" value="" style="rounded=0;orthogonalLoop=1;jettySize=auto;html=1;fillColor=#FF0000;strokeColor=#000000;fontColor=#000000;exitX=0.473;exitY=0.977;exitDx=0;exitDy=0;exitPerimeter=0;entryX=0.5;entryY=0;entryDx=0;entryDy=0;" parent="1" source="u1zgg_5FD5gQ_HjgiqYV-205" target="u1zgg_5FD5gQ_HjgiqYV-211" edge="1">
          <mxGeometry relative="1" as="geometry">
            <mxPoint x="330" y="997" as="sourcePoint" />
            <mxPoint x="390" y="922" as="targetPoint" />
          </mxGeometry>
        </mxCell>
        <mxCell id="u1zgg_5FD5gQ_HjgiqYV-214" value="" style="edgeStyle=none;curved=1;rounded=0;orthogonalLoop=1;jettySize=auto;html=1;fontSize=12;startSize=8;endSize=8;strokeColor=#000000;exitX=0.613;exitY=1.009;exitDx=0;exitDy=0;exitPerimeter=0;entryX=0.514;entryY=0.129;entryDx=0;entryDy=0;entryPerimeter=0;" parent="1" source="u1zgg_5FD5gQ_HjgiqYV-206" target="u1zgg_5FD5gQ_HjgiqYV-216" edge="1">
          <mxGeometry relative="1" as="geometry">
            <Array as="points" />
            <mxPoint x="170" y="1030" as="targetPoint" />
            <mxPoint x="182" y="1043" as="sourcePoint" />
          </mxGeometry>
        </mxCell>
        <mxCell id="u1zgg_5FD5gQ_HjgiqYV-215" value="&lt;font style=&quot;font-size: 12px;&quot;&gt;Εισάγει επιλογή&lt;br style=&quot;font-size: 12px;&quot;&gt;(επιβεβαίωση ή όχι)&lt;br style=&quot;font-size: 12px;&quot;&gt;&lt;/font&gt;" style="edgeLabel;html=1;align=center;verticalAlign=middle;resizable=0;points=[];fontSize=12;rotation=0;fontColor=#000000;" parent="1" vertex="1" connectable="0">
          <mxGeometry x="180.0002870063051" y="1180.004023431183" as="geometry">
            <mxPoint x="-176" y="-424" as="offset" />
          </mxGeometry>
        </mxCell>
        <mxCell id="u1zgg_5FD5gQ_HjgiqYV-216" value="&lt;font&gt;Επιβεβαίωσε ο χρήστης;&lt;/font&gt;" style="ellipse;shape=umlControl;whiteSpace=wrap;html=1;strokeColor=#000000;fontColor=#000000;" parent="1" vertex="1">
          <mxGeometry x="140" y="1010" width="80" height="90" as="geometry" />
        </mxCell>
        <mxCell id="u1zgg_5FD5gQ_HjgiqYV-218" value="" style="edgeStyle=none;curved=1;rounded=0;orthogonalLoop=1;jettySize=auto;html=1;fontSize=12;startSize=8;endSize=8;strokeColor=#000000;exitX=0.509;exitY=1.04;exitDx=0;exitDy=0;exitPerimeter=0;entryX=0.708;entryY=0.035;entryDx=0;entryDy=0;entryPerimeter=0;" parent="1" source="u1zgg_5FD5gQ_HjgiqYV-216" target="u1zgg_5FD5gQ_HjgiqYV-223" edge="1">
          <mxGeometry relative="1" as="geometry">
            <Array as="points" />
            <mxPoint x="150" y="1180" as="targetPoint" />
            <mxPoint x="170" y="1170" as="sourcePoint" />
          </mxGeometry>
        </mxCell>
        <mxCell id="u1zgg_5FD5gQ_HjgiqYV-219" value="&lt;font style=&quot;font-size: 14px;&quot;&gt;ναι&lt;br&gt;&lt;br&gt;&lt;/font&gt;" style="edgeLabel;html=1;align=center;verticalAlign=middle;resizable=0;points=[];fontColor=#000000;fontSize=14;" parent="1" vertex="1" connectable="0">
          <mxGeometry x="160" y="1150" as="geometry" />
        </mxCell>
        <mxCell id="u1zgg_5FD5gQ_HjgiqYV-223" value="Πληρωμή παραγγελίας" style="ellipse;whiteSpace=wrap;html=1;" parent="1" vertex="1">
          <mxGeometry x="85" y="1190" width="130" height="70" as="geometry" />
        </mxCell>
        <mxCell id="u1zgg_5FD5gQ_HjgiqYV-227" value="" style="edgeStyle=none;curved=1;rounded=0;orthogonalLoop=1;jettySize=auto;html=1;fontSize=12;startSize=8;endSize=8;strokeColor=#FF0000;exitX=0.993;exitY=0.587;exitDx=0;exitDy=0;exitPerimeter=0;entryX=0.037;entryY=0.513;entryDx=0;entryDy=0;entryPerimeter=0;" parent="1" source="u1zgg_5FD5gQ_HjgiqYV-198" target="u1zgg_5FD5gQ_HjgiqYV-229" edge="1">
          <mxGeometry relative="1" as="geometry">
            <Array as="points" />
            <mxPoint x="780" y="865" as="targetPoint" />
            <mxPoint x="640" y="842" as="sourcePoint" />
          </mxGeometry>
        </mxCell>
        <mxCell id="u1zgg_5FD5gQ_HjgiqYV-228" value="&lt;font style=&quot;font-size: 14px;&quot;&gt;όχι&lt;br&gt;&lt;/font&gt;" style="edgeLabel;html=1;align=center;verticalAlign=middle;resizable=0;points=[];fontColor=#000000;fontSize=14;" parent="1" vertex="1" connectable="0">
          <mxGeometry x="440" y="910" as="geometry">
            <mxPoint x="228" y="-50" as="offset" />
          </mxGeometry>
        </mxCell>
        <mxCell id="u1zgg_5FD5gQ_HjgiqYV-229" value="&lt;font color=&quot;#ffffff&quot;&gt;Εμφάνισε μήνυμα σφάλματος&amp;nbsp;&lt;/font&gt;" style="ellipse;shape=umlControl;whiteSpace=wrap;html=1;strokeColor=#000000;fontColor=#000000;fillColor=#FF0000;" parent="1" vertex="1">
          <mxGeometry x="750" y="817.25" width="90" height="104.75" as="geometry" />
        </mxCell>
        <mxCell id="u1zgg_5FD5gQ_HjgiqYV-231" value="" style="edgeStyle=none;curved=1;rounded=0;orthogonalLoop=1;jettySize=auto;html=1;fontSize=12;startSize=8;endSize=8;strokeColor=#FF0000;entryX=0.935;entryY=0.822;entryDx=0;entryDy=0;entryPerimeter=0;exitX=0.103;exitY=0.299;exitDx=0;exitDy=0;exitPerimeter=0;" parent="1" source="u1zgg_5FD5gQ_HjgiqYV-229" target="u1zgg_5FD5gQ_HjgiqYV-192" edge="1">
          <mxGeometry relative="1" as="geometry">
            <Array as="points" />
            <mxPoint x="919" y="795" as="targetPoint" />
            <mxPoint x="750" y="800" as="sourcePoint" />
          </mxGeometry>
        </mxCell>
        <mxCell id="u1zgg_5FD5gQ_HjgiqYV-232" value="" style="edgeStyle=none;curved=1;rounded=0;orthogonalLoop=1;jettySize=auto;html=1;fontSize=12;startSize=8;endSize=8;strokeColor=#FF0000;exitX=0.842;exitY=0.188;exitDx=0;exitDy=0;exitPerimeter=0;entryX=0.031;entryY=0.721;entryDx=0;entryDy=0;entryPerimeter=0;" parent="1" source="u1zgg_5FD5gQ_HjgiqYV-216" target="u1zgg_5FD5gQ_HjgiqYV-174" edge="1">
          <mxGeometry relative="1" as="geometry">
            <Array as="points" />
            <mxPoint x="-411.4000000000001" y="515.1200000000001" as="targetPoint" />
            <mxPoint x="-29" y="975" as="sourcePoint" />
          </mxGeometry>
        </mxCell>
        <mxCell id="u1zgg_5FD5gQ_HjgiqYV-233" value="&lt;font style=&quot;font-size: 14px;&quot;&gt;όχι&lt;br&gt;&lt;/font&gt;" style="edgeLabel;html=1;align=center;verticalAlign=middle;resizable=0;points=[];fontColor=#000000;fontSize=14;" parent="1" vertex="1" connectable="0">
          <mxGeometry y="1055" as="geometry">
            <mxPoint x="228" y="-50" as="offset" />
          </mxGeometry>
        </mxCell>
        <mxCell id="t5E97ZUKieFiEIGQlcPi-1" value="Υπόλοιπο χρήστη" style="ellipse;shape=umlEntity;whiteSpace=wrap;html=1;strokeColor=#000000;fontColor=#000000;fontSize=14;" parent="1" vertex="1">
          <mxGeometry x="260" y="99.99999999999997" width="85" height="80" as="geometry" />
        </mxCell>
        <mxCell id="t5E97ZUKieFiEIGQlcPi-2" value="" style="endArrow=classic;html=1;rounded=0;exitX=0.045;exitY=0.429;exitDx=0;exitDy=0;exitPerimeter=0;entryX=0.988;entryY=0.651;entryDx=0;entryDy=0;entryPerimeter=0;" parent="1" source="u1zgg_5FD5gQ_HjgiqYV-174" target="t5E97ZUKieFiEIGQlcPi-1" edge="1">
          <mxGeometry width="50" height="50" relative="1" as="geometry">
            <mxPoint x="160" y="320" as="sourcePoint" />
            <mxPoint x="210" y="270" as="targetPoint" />
          </mxGeometry>
        </mxCell>
      </root>
    </mxGraphModel>
  </diagram>
</mxfile>
